<?xml version="1.0" encoding="utf-8"?>
<!-- Generator: Adobe Illustrator 23.0.1, SVG Export Plug-In . SVG Version: 6.00 Build 0)  -->
<svg version="1.1" id="Layer_1" xmlns="http://www.w3.org/2000/svg" xmlns:xlink="http://www.w3.org/1999/xlink" x="0px" y="0px"
	 viewBox="0 0 105.2 28.3" style="enable-background:new 0 0 105.2 28.3;" xml:space="preserve">
<style type="text/css">
	.st0{fill:#667EEA;}
	.st1{fill:#FFFFFF;}
	.st2{fill:#1A202C;}
	.st3{font-family:'Rubik-Bold';}
	.st4{font-size:13px;}
	.st5{fill:none;}
	.st6{font-size:7.5px;}
</style>
<circle class="st0" cx="14.2" cy="14.2" r="14.2"/>
<path class="st1" d="M8.6,21.9v-5.5c0-0.8,0.7-1.5,1.5-1.5h3c0.8,0,1.5,0.7,1.5,1.5v5.5h6.5c0.8,0,1.5-0.7,1.5-1.5v-8h1v8
	c0,1.4-1.1,2.5-2.5,2.5h-13c-1.4,0-2.5-1.1-2.5-2.5v-8h1v8c0,0.8,0.7,1.5,1.5,1.5H8.6z M9.6,21.9h4v-5.5c0-0.3-0.2-0.5-0.5-0.5h-3
	c-0.3,0-0.5,0.2-0.5,0.5V21.9z M17.6,16.4v2c0,0.3,0.2,0.5,0.5,0.5h1c0.3,0,0.5-0.2,0.5-0.5v-2c0-0.3-0.2-0.5-0.5-0.5h-1
	C17.8,15.9,17.6,16.1,17.6,16.4z M16.6,16.4c0-0.8,0.7-1.5,1.5-1.5h1c0.8,0,1.5,0.7,1.5,1.5v2c0,0.8-0.7,1.5-1.5,1.5h-1
	c-0.8,0-1.5-0.7-1.5-1.5V16.4z M8.6,12.9H6.1c-0.8,0-1.5-0.7-1.5-1.5v-0.8c0-0.2,0-0.4,0.1-0.6l1.9-4.8C6.7,5,6.9,4.9,7.1,4.9h15
	c0.2,0,0.4,0.1,0.5,0.3l1.9,4.8c0.1,0.2,0.1,0.4,0.1,0.6v0.8c0,0.8-0.7,1.5-1.5,1.5h-2.5c-0.4,0-0.7-0.1-1-0.4
	c-0.3,0.2-0.6,0.4-1,0.4h-3c-0.4,0-0.7-0.1-1-0.4c-0.3,0.2-0.6,0.4-1,0.4h-3c-0.4,0-0.7-0.1-1-0.4C9.3,12.8,9,12.9,8.6,12.9z
	 M7.4,5.9l-1.8,4.5c0,0.1,0,0.1,0,0.2v0.8c0,0.3,0.2,0.5,0.5,0.5h2.5c0.3,0,0.5-0.2,0.5-0.5v-1c0-0.3,0.2-0.5,0.5-0.5
	c0.3,0,0.5,0.2,0.5,0.5v1c0,0.3,0.2,0.5,0.5,0.5h3c0.3,0,0.5-0.2,0.5-0.5v-1c0-0.3,0.2-0.5,0.5-0.5s0.5,0.2,0.5,0.5v1
	c0,0.3,0.2,0.5,0.5,0.5h3c0.3,0,0.5-0.2,0.5-0.5v-1c0-0.3,0.2-0.5,0.5-0.5s0.5,0.2,0.5,0.5v1c0,0.3,0.2,0.5,0.5,0.5h2.5
	c0.3,0,0.5-0.2,0.5-0.5v-0.8c0-0.1,0-0.1,0-0.2l-1.8-4.5H7.4z"/>
<text transform="matrix(1 0 0 1 30.5223 13.789)" class="st2 st3 st4">Solihull</text>
<rect x="31.1" y="15.9" class="st5" width="75.9" height="9.3"/>
<text transform="matrix(1 0 0 1 31.0638 21.2295)" class="st0 st3 st6">lockdown economy</text>
</svg>
